<svg xmlns="http://www.w3.org/2000/svg" width="210.0mm" height="297.0mm" viewBox="0 0 210.0 297.0">
<!-- polargraph calibration: centered 150.0mm square, 4 rings -->
<g stroke="#111111" fill="none" stroke-width="0.3">
<polyline points="30.000,73.500 180.000,73.500 180.000,223.500 30.000,223.500 30.000,73.500"/>
<polyline points="122.250,148.500 122.226,149.403 122.156,150.303 122.038,151.198 121.873,152.086 121.662,152.965 121.406,153.831 121.104,154.682 120.759,155.516 120.370,156.331 119.939,157.125 119.467,157.895 118.956,158.639 118.406,159.356 117.819,160.043 117.198,160.698 116.543,161.319 115.856,161.906 115.139,162.456 114.395,162.967 113.625,163.439 112.831,163.870 112.016,164.259 111.182,164.604 110.331,164.906 109.465,165.162 108.586,165.373 107.698,165.538 106.803,165.656 105.903,165.726 105.000,165.750 104.097,165.726 103.197,165.656 102.302,165.538 101.414,165.373 100.535,165.162 99.669,164.906 98.818,164.604 97.984,164.259 97.169,163.870 96.375,163.439 95.605,162.967 94.861,162.456 94.144,161.906 93.457,161.319 92.802,160.698 92.181,160.043 91.594,159.356 91.044,158.639 90.533,157.895 90.061,157.125 89.630,156.331 89.241,155.516 88.896,154.682 88.594,153.831 88.338,152.965 88.127,152.086 87.962,151.198 87.844,150.303 87.774,149.403 87.750,148.500 87.774,147.597 87.844,146.697 87.962,145.802 88.127,144.914 88.338,144.035 88.594,143.169 88.896,142.318 89.241,141.484 89.630,140.669 90.061,139.875 90.533,139.105 91.044,138.361 91.594,137.644 92.181,136.957 92.802,136.302 93.457,135.681 94.144,135.094 94.861,134.544 95.605,134.033 96.375,133.561 97.169,133.130 97.984,132.741 98.818,132.396 99.669,132.094 100.535,131.838 101.414,131.627 102.302,131.462 103.197,131.344 104.097,131.274 105.000,131.250 105.903,131.274 106.803,131.344 107.698,131.462 108.586,131.627 109.465,131.838 110.331,132.094 111.182,132.396 112.016,132.741 112.831,133.130 113.625,133.561 114.395,134.033 115.139,134.544 115.856,135.094 116.543,135.681 117.198,136.302 117.819,136.957 118.406,137.644 118.956,138.361 119.467,139.105 119.939,139.875 120.370,140.669 120.759,141.484 121.104,142.318 121.406,143.169 121.662,144.035 121.873,144.914 122.038,145.802 122.156,146.697 122.226,147.597 122.250,148.500"/>
<polyline points="139.500,148.500 139.453,150.306 139.311,152.106 139.075,153.897 138.746,155.673 138.324,157.429 137.811,159.161 137.209,160.864 136.517,162.532 135.740,164.163 134.878,165.750 133.934,167.290 132.911,168.779 131.812,170.212 130.638,171.585 129.395,172.895 128.085,174.138 126.712,175.312 125.279,176.411 123.790,177.434 122.250,178.378 120.663,179.240 119.032,180.017 117.364,180.709 115.661,181.311 113.929,181.824 112.173,182.246 110.397,182.575 108.606,182.811 106.806,182.953 105.000,183.000 103.194,182.953 101.394,182.811 99.603,182.575 97.827,182.246 96.071,181.824 94.339,181.311 92.636,180.709 90.968,180.017 89.337,179.240 87.750,178.378 86.210,177.434 84.721,176.411 83.288,175.312 81.915,174.138 80.605,172.895 79.362,171.585 78.188,170.212 77.089,168.779 76.066,167.290 75.122,165.750 74.260,164.163 73.483,162.532 72.791,160.864 72.189,159.161 71.676,157.429 71.254,155.673 70.925,153.897 70.689,152.106 70.547,150.306 70.500,148.500 70.547,146.694 70.689,144.894 70.925,143.103 71.254,141.327 71.676,139.571 72.189,137.839 72.791,136.136 73.483,134.468 74.260,132.837 75.122,131.250 76.066,129.710 77.089,128.221 78.188,126.788 79.362,125.415 80.605,124.105 81.915,122.862 83.288,121.688 84.721,120.589 86.210,119.566 87.750,118.622 89.337,117.760 90.968,116.983 92.636,116.291 94.339,115.689 96.071,115.176 97.827,114.754 99.603,114.425 101.394,114.189 103.194,114.047 105.000,114.000 106.806,114.047 108.606,114.189 110.397,114.425 112.173,114.754 113.929,115.176 115.661,115.689 117.364,116.291 119.032,116.983 120.663,117.760 122.250,118.622 123.790,119.566 125.279,120.589 126.712,121.688 128.085,122.862 129.395,124.105 130.638,125.415 131.812,126.788 132.911,128.221 133.934,129.710 134.878,131.250 135.740,132.837 136.517,134.468 137.209,136.136 137.811,137.839 138.324,139.571 138.746,141.327 139.075,143.103 139.311,144.894 139.453,146.694 139.500,148.500"/>
<polyline points="156.750,148.500 156.679,151.208 156.467,153.909 156.113,156.595 155.619,159.259 154.987,161.894 154.217,164.492 153.313,167.046 152.276,169.549 151.110,171.994 149.817,174.375 148.401,176.685 146.867,178.918 145.217,181.067 143.458,183.128 141.593,185.093 139.628,186.958 137.567,188.717 135.418,190.367 133.185,191.901 130.875,193.317 128.494,194.610 126.049,195.776 123.546,196.813 120.992,197.717 118.394,198.487 115.759,199.119 113.095,199.613 110.409,199.967 107.708,200.179 105.000,200.250 102.292,200.179 99.591,199.967 96.905,199.613 94.241,199.119 91.606,198.487 89.008,197.717 86.454,196.813 83.951,195.776 81.506,194.610 79.125,193.317 76.815,191.901 74.582,190.367 72.433,188.717 70.372,186.958 68.407,185.093 66.542,183.128 64.783,181.067 63.133,178.918 61.599,176.685 60.183,174.375 58.890,171.994 57.724,169.549 56.687,167.046 55.783,164.492 55.013,161.894 54.381,159.259 53.887,156.595 53.533,153.909 53.321,151.208 53.250,148.500 53.321,145.792 53.533,143.091 53.887,140.405 54.381,137.741 55.013,135.106 55.783,132.508 56.687,129.954 57.724,127.451 58.890,125.006 60.183,122.625 61.599,120.315 63.133,118.082 64.783,115.933 66.542,113.872 68.407,111.907 70.372,110.042 72.433,108.283 74.582,106.633 76.815,105.099 79.125,103.683 81.506,102.390 83.951,101.224 86.454,100.187 89.008,99.283 91.606,98.513 94.241,97.881 96.905,97.387 99.591,97.033 102.292,96.821 105.000,96.750 107.708,96.821 110.409,97.033 113.095,97.387 115.759,97.881 118.394,98.513 120.992,99.283 123.546,100.187 126.049,101.224 128.494,102.390 130.875,103.683 133.185,105.099 135.418,106.633 137.567,108.283 139.628,110.042 141.593,111.907 143.458,113.872 145.217,115.933 146.867,118.082 148.401,120.315 149.817,122.625 151.110,125.006 152.276,127.451 153.313,129.954 154.217,132.508 154.987,135.106 155.619,137.741 156.113,140.405 156.467,143.091 156.679,145.792 156.750,148.500"/>
<polyline points="174.000,148.500 173.905,152.111 173.622,155.712 173.150,159.294 172.492,162.846 171.649,166.359 170.623,169.822 169.417,173.227 168.035,176.565 166.479,179.825 164.756,183.000 162.868,186.080 160.822,189.057 158.623,191.923 156.277,194.670 153.790,197.290 151.170,199.777 148.423,202.123 145.557,204.322 142.580,206.368 139.500,208.256 136.325,209.979 133.065,211.535 129.727,212.917 126.322,214.123 122.859,215.149 119.346,215.992 115.794,216.650 112.212,217.122 108.611,217.405 105.000,217.500 101.389,217.405 97.788,217.122 94.206,216.650 90.654,215.992 87.141,215.149 83.678,214.123 80.273,212.917 76.935,211.535 73.675,209.979 70.500,208.256 67.420,206.368 64.443,204.322 61.577,202.123 58.830,199.777 56.210,197.290 53.723,194.670 51.377,191.923 49.178,189.057 47.132,186.080 45.244,183.000 43.521,179.825 41.965,176.565 40.583,173.227 39.377,169.822 38.351,166.359 37.508,162.846 36.850,159.294 36.378,155.712 36.095,152.111 36.000,148.500 36.095,144.889 36.378,141.288 36.850,137.706 37.508,134.154 38.351,130.641 39.377,127.178 40.583,123.773 41.965,120.435 43.521,117.175 45.244,114.000 47.132,110.920 49.178,107.943 51.377,105.077 53.723,102.330 56.210,99.710 58.830,97.223 61.577,94.877 64.443,92.678 67.420,90.632 70.500,88.744 73.675,87.021 76.935,85.465 80.273,84.083 83.678,82.877 87.141,81.851 90.654,81.008 94.206,80.350 97.788,79.878 101.389,79.595 105.000,79.500 108.611,79.595 112.212,79.878 115.794,80.350 119.346,81.008 122.859,81.851 126.322,82.877 129.727,84.083 133.065,85.465 136.325,87.021 139.500,88.744 142.580,90.632 145.557,92.678 148.423,94.877 151.170,97.223 153.790,99.710 156.277,102.330 158.623,105.077 160.822,107.943 162.868,110.920 164.756,114.000 166.479,117.175 168.035,120.435 169.417,123.773 170.623,127.178 171.649,130.641 172.492,134.154 173.150,137.706 173.622,141.288 173.905,144.889 174.000,148.500"/>
<polyline points="22.000,148.500 188.000,148.500"/>
<polyline points="105.000,65.500 105.000,231.500"/>
</g></svg>
